<?xml version="1.0" encoding="UTF-8"?>
<svg xmlns="http://www.w3.org/2000/svg" xmlns:xlink="http://www.w3.org/1999/xlink" width="947.720032pt" height="259.279999pt" viewBox="0 0 947.720032 259.279999" version="1.1">
<defs>
<clipPath id="clip1">
  <path d="M 748 66 L 947.71875 66 L 947.71875 259.28125 L 748 259.28125 Z M 748 66 "/>
</clipPath>
</defs>
<g id="surface1">
<g clip-path="url(#clip1)" clip-rule="nonzero">
<path style=" stroke:none;fill-rule:nonzero;fill:rgb(1.568604%,2.352905%,2.352905%);fill-opacity:1;" d="M 884.015625 199.640625 C 875.207031 208.605469 862.976562 213.347656 848.644531 213.367188 C 848.527344 213.367188 848.410156 213.359375 848.296875 213.359375 C 848.179688 213.359375 848.0625 213.367188 847.945312 213.367188 C 833.613281 213.347656 821.382812 208.605469 812.574219 199.640625 C 803.679688 190.582031 798.859375 177.484375 798.917969 162.644531 C 798.859375 147.804688 803.679688 134.695312 812.578125 125.636719 C 821.382812 116.671875 833.613281 111.925781 847.949219 111.910156 L 848.03125 111.910156 C 848.121094 111.910156 848.207031 111.914062 848.296875 111.914062 C 848.382812 111.914062 848.46875 111.910156 848.558594 111.910156 L 848.640625 111.910156 C 862.976562 111.925781 875.207031 116.671875 884.011719 125.636719 C 892.910156 134.695312 897.730469 147.804688 897.671875 162.644531 C 897.730469 177.484375 892.910156 190.582031 884.015625 199.640625 Z M 947.71875 162.628906 C 947.59375 125.171875 932.152344 97.234375 901.703125 79.5625 C 885.40625 70.109375 866.921875 65.917969 848.296875 66.046875 C 829.667969 65.917969 811.183594 70.109375 794.886719 79.5625 C 764.4375 97.234375 748.996094 125.171875 748.871094 162.628906 L 748.867188 162.628906 C 748.988281 200.097656 764.433594 228.039062 794.882812 245.714844 C 810.695312 254.886719 828.65625 259.183594 846.863281 259.28125 C 847.339844 259.28125 847.820312 259.265625 848.296875 259.261719 C 848.769531 259.265625 849.253906 259.28125 849.726562 259.28125 C 867.9375 259.183594 885.894531 254.886719 901.707031 245.714844 C 932.15625 228.039062 947.605469 200.097656 947.722656 162.628906 L 947.71875 162.628906 "/>
</g>
<path style=" stroke:none;fill-rule:nonzero;fill:rgb(1.568604%,2.352905%,2.352905%);fill-opacity:1;" d="M 248.019531 68.113281 L 248.019531 114.058594 L 317.941406 114.058594 L 317.941406 257.597656 L 369.121094 257.597656 L 369.121094 114.058594 L 440.316406 114.058594 L 440.316406 68.113281 L 248.019531 68.113281 "/>
<path style=" stroke:none;fill-rule:nonzero;fill:rgb(1.568604%,2.352905%,2.352905%);fill-opacity:1;" d="M 179.847656 67.726562 L 231.496094 67.726562 L 231.496094 257.597656 L 179.847656 257.597656 Z M 179.847656 67.726562 "/>
<path style=" stroke:none;fill-rule:nonzero;fill:rgb(1.568604%,2.352905%,2.352905%);fill-opacity:1;" d="M 0 67.726562 L 51.644531 67.726562 L 51.644531 257.597656 L 0 257.597656 Z M 0 67.726562 "/>
<path style=" stroke:none;fill-rule:nonzero;fill:rgb(1.568604%,2.352905%,2.352905%);fill-opacity:1;" d="M 129.53125 67.726562 L 51.648438 257.597656 L 104.894531 257.597656 L 179.796875 67.726562 L 129.53125 67.726562 "/>
<path style=" stroke:none;fill-rule:nonzero;fill:rgb(1.568604%,2.352905%,2.352905%);fill-opacity:1;" d="M 647.605469 67.726562 L 596.347656 192.6875 L 545.085938 67.726562 L 456.839844 67.726562 L 456.839844 257.597656 L 508.488281 257.597656 L 508.488281 102.371094 L 569.726562 257.597656 L 622.96875 257.597656 L 684.207031 102.363281 L 684.207031 257.597656 L 735.863281 257.597656 L 735.863281 67.726562 L 647.605469 67.726562 "/>
<path style=" stroke:none;fill-rule:nonzero;fill:rgb(1.568604%,2.352905%,2.352905%);fill-opacity:1;" d="M 205.648438 0.00390625 C 191.367188 0.00390625 179.796875 11.328125 179.796875 25.292969 C 179.796875 39.261719 191.367188 50.582031 205.648438 50.582031 C 219.925781 50.582031 231.496094 39.261719 231.496094 25.292969 C 231.496094 11.328125 219.925781 0.00390625 205.648438 0.00390625 "/>
</g>
</svg>
